# xmcd
#
# Track frame offsets:
#	150
#	1432
#	104757
#	114967
#	118922
#	142430
#	155984
#	184753
#	191415
#	201315
#	207424
#	212746
#	233593
#	244786
#	280299
#	292717
#	297103
#	309070
#	310220
#	314749
#	335497
#
# Disc length: 4485 seconds
# Revision: 0
# Processed by: cddbd v1.5.2PL0 Copyright (c) Steve Scherf et al.
# Submitted via: dBpowerAMP V12.0
#
DISCID=4a118315
DTITLE=Hale Dwoskin - The Inner Circle Retreat 01 CD 12
DYEAR=2006
DGENRE=Speech
TTITLE0=Intro Music
TTITLE1=Release on the Memory Called Me
TTITLE2=Assignments
TTITLE3=Sharing
TTITLE4=Desire - The Dot in the Middle
TTITLE5=Trusting
TTITLE6=Self Inquiry
TTITLE7=Wanting Approval
TTITLE8=Participant Gains
TTITLE9=Sharing - If I Am Not That
TTITLE10=Wanting to Be Something
TTITLE11=You Have Never Gone Anywhere
TTITLE12=Tinnitus
TTITLE13=Anxiety
TTITLE14=Places of Unconsciousness
TTITLE15=Guilt
TTITLE16=The Mind is Fighting for Its Life
TTITLE17=Sharing
TTITLE18=Is There a Shortcut
TTITLE19=Dissolving a Belief
TTITLE20=Concluding Music
EXTD=
EXTT0=
EXTT1=
EXTT2=
EXTT3=
EXTT4=
EXTT5=
EXTT6=
EXTT7=
EXTT8=
EXTT9=
EXTT10=
EXTT11=
EXTT12=
EXTT13=
EXTT14=
EXTT15=
EXTT16=
EXTT17=
EXTT18=
EXTT19=
EXTT20=
PLAYORDER=
